<svg xmlns="http://www.w3.org/2000/svg" width="64" height="32" viewBox="0 0 64 32" fill="none">
    <path d="M30.7254 29.5204C30.7254 29.5804 30.7141 29.6217 30.6916 29.6442C30.6766 29.6592 30.6429 29.6667 30.5904 29.6667H29.9941C29.9341 29.6667 29.8929 29.6592 29.8704 29.6442C29.8479 29.6217 29.8366 29.5804 29.8366 29.5204V22.5567H27.5866C27.5266 22.5567 27.4891 22.5492 27.4741 22.5342C27.4591 22.5117 27.4516 22.4704 27.4516 22.4104V21.9492C27.4516 21.8892 27.4591 21.8479 27.4741 21.8254C27.4891 21.8029 27.5266 21.7917 27.5866 21.7917H33.0541C33.1141 21.7917 33.1516 21.8029 33.1666 21.8254C33.1891 21.8479 33.2004 21.8892 33.2004 21.9492V22.4104C33.2004 22.4704 33.1891 22.5117 33.1666 22.5342C33.1516 22.5492 33.1141 22.5567 33.0541 22.5567H30.7254V29.5204ZM35.9684 23.6367C36.3959 23.6367 36.7634 23.7004 37.0709 23.8279C37.3784 23.9479 37.6297 24.1204 37.8247 24.3454C38.0272 24.5704 38.1772 24.8367 38.2747 25.1442C38.3722 25.4517 38.4209 25.7892 38.4209 26.1567C38.4209 26.4717 38.3459 26.6817 38.1959 26.7867C38.0534 26.8842 37.8772 26.9329 37.6672 26.9329H34.2359C34.2359 27.3229 34.2847 27.6567 34.3822 27.9342C34.4797 28.2042 34.6109 28.4254 34.7759 28.5979C34.9484 28.7629 35.1472 28.8829 35.3722 28.9579C35.6047 29.0329 35.8522 29.0704 36.1147 29.0704C36.3622 29.0704 36.6022 29.0404 36.8347 28.9804C37.0747 28.9204 37.2772 28.8454 37.4422 28.7554C37.5322 28.7104 37.5959 28.7254 37.6334 28.8004L37.8359 29.1942C37.8809 29.2842 37.8622 29.3479 37.7797 29.3854C37.5172 29.5429 37.2359 29.6479 36.9359 29.7004C36.6359 29.7604 36.3434 29.7904 36.0584 29.7904C35.2334 29.7904 34.5847 29.5504 34.1122 29.0704C33.6397 28.5829 33.4034 27.8067 33.4034 26.7417C33.4034 26.2392 33.4672 25.7967 33.5947 25.4142C33.7222 25.0242 33.8984 24.6979 34.1234 24.4354C34.3559 24.1729 34.6259 23.9742 34.9334 23.8392C35.2484 23.7042 35.5934 23.6367 35.9684 23.6367ZM37.6334 26.2579C37.6334 26.0029 37.6072 25.7592 37.5547 25.5267C37.5022 25.2942 37.4122 25.0917 37.2847 24.9192C37.1647 24.7392 36.9959 24.5967 36.7784 24.4917C36.5609 24.3867 36.2909 24.3342 35.9684 24.3342C35.7059 24.3342 35.4697 24.3867 35.2597 24.4917C35.0572 24.5892 34.8847 24.7242 34.7422 24.8967C34.5997 25.0692 34.4872 25.2717 34.4047 25.5042C34.3297 25.7367 34.2847 25.9879 34.2697 26.2579H37.6334ZM44.1269 29.1492C44.1269 29.2842 44.0744 29.3742 43.9694 29.4192C43.6319 29.5617 43.2719 29.6592 42.8894 29.7117C42.5069 29.7642 42.1394 29.7904 41.7869 29.7904C41.3069 29.7904 40.9132 29.7379 40.6057 29.6329C40.2982 29.5279 40.0544 29.3929 39.8744 29.2279C39.6944 29.0554 39.5669 28.8604 39.4919 28.6429C39.4244 28.4179 39.3907 28.1854 39.3907 27.9454C39.3907 27.6679 39.4394 27.4092 39.5369 27.1692C39.6344 26.9217 39.7807 26.7079 39.9757 26.5279C40.1782 26.3479 40.4294 26.2092 40.7294 26.1117C41.0294 26.0067 41.3857 25.9542 41.7982 25.9542H43.2944V25.6504C43.2944 25.4629 43.2757 25.2904 43.2382 25.1329C43.2007 24.9679 43.1294 24.8292 43.0244 24.7167C42.9194 24.6042 42.7732 24.5179 42.5857 24.4579C42.3982 24.3904 42.1544 24.3567 41.8544 24.3567C41.6069 24.3567 41.3332 24.3829 41.0332 24.4354C40.7407 24.4804 40.4894 24.5367 40.2794 24.6042C40.2269 24.6192 40.1857 24.6267 40.1557 24.6267C40.1257 24.6192 40.1032 24.5892 40.0882 24.5367L39.9757 24.1317C39.9532 24.0492 39.9832 23.9929 40.0657 23.9629C40.2007 23.9104 40.3469 23.8654 40.5044 23.8279C40.6619 23.7829 40.8232 23.7454 40.9882 23.7154C41.1607 23.6854 41.3332 23.6667 41.5057 23.6592C41.6782 23.6442 41.8394 23.6367 41.9894 23.6367C42.7169 23.6367 43.2532 23.7979 43.5982 24.1204C43.9507 24.4429 44.1269 24.9154 44.1269 25.5379V29.1492ZM43.2832 26.6742H41.8319C41.6969 26.6742 41.5357 26.6854 41.3482 26.7079C41.1607 26.7304 40.9807 26.7867 40.8082 26.8767C40.6432 26.9592 40.5007 27.0867 40.3807 27.2592C40.2682 27.4242 40.2119 27.6529 40.2119 27.9454C40.2119 28.1704 40.2532 28.3579 40.3357 28.5079C40.4257 28.6579 40.5419 28.7779 40.6844 28.8679C40.8344 28.9579 41.0032 29.0217 41.1907 29.0592C41.3782 29.0892 41.5732 29.1042 41.7757 29.1042C41.8432 29.1042 41.9332 29.1004 42.0457 29.0929C42.1657 29.0854 42.2969 29.0742 42.4394 29.0592C42.5819 29.0442 42.7244 29.0217 42.8669 28.9917C43.0169 28.9542 43.1557 28.9129 43.2832 28.8679V26.6742ZM51.6225 23.6367C52.08 23.6367 52.4625 23.7042 52.77 23.8392C53.0775 23.9667 53.325 24.1504 53.5125 24.3904C53.7 24.6304 53.8313 24.9192 53.9063 25.2567C53.9888 25.5867 54.03 25.9579 54.03 26.3704V29.5317C54.03 29.5917 54.0188 29.6292 53.9963 29.6442C53.9813 29.6592 53.9438 29.6667 53.8838 29.6667H53.3775C53.3175 29.6667 53.2763 29.6592 53.2538 29.6442C53.2313 29.6292 53.22 29.5917 53.22 29.5317V26.5392C53.22 25.7967 53.0963 25.2492 52.8488 24.8967C52.6013 24.5442 52.1588 24.3679 51.5213 24.3679C51.4088 24.3679 51.2813 24.3792 51.1388 24.4017C50.9963 24.4242 50.85 24.4579 50.7 24.5029C50.5575 24.5404 50.415 24.5854 50.2725 24.6379C50.1375 24.6904 50.0138 24.7504 49.9013 24.8179C50.0063 25.0279 50.0775 25.2679 50.115 25.5379C50.1525 25.8004 50.1713 26.1117 50.1713 26.4717V29.5317C50.1713 29.5917 50.16 29.6292 50.1375 29.6442C50.115 29.6592 50.0738 29.6667 50.0138 29.6667H49.5075C49.455 29.6667 49.4175 29.6592 49.395 29.6442C49.3725 29.6292 49.3613 29.5917 49.3613 29.5317V26.4492C49.3613 26.1117 49.3313 25.8154 49.2713 25.5604C49.2188 25.2979 49.125 25.0804 48.99 24.9079C48.855 24.7279 48.6713 24.5929 48.4388 24.5029C48.2063 24.4129 47.91 24.3679 47.55 24.3679C47.46 24.3679 47.3175 24.3754 47.1225 24.3904C46.9275 24.3979 46.6988 24.4279 46.4363 24.4804V29.5204C46.4363 29.5804 46.425 29.6217 46.4025 29.6442C46.38 29.6592 46.3388 29.6667 46.2788 29.6667H45.7725C45.72 29.6667 45.6788 29.6592 45.6488 29.6442C45.6263 29.6217 45.615 29.5804 45.615 29.5204V24.4917C45.615 24.0642 45.8175 23.8167 46.2225 23.7492C46.3125 23.7342 46.4138 23.7192 46.5263 23.7042C46.6388 23.6892 46.755 23.6779 46.875 23.6704C46.995 23.6554 47.1113 23.6479 47.2238 23.6479C47.3363 23.6404 47.4338 23.6367 47.5163 23.6367C47.9738 23.6367 48.3525 23.6892 48.6525 23.7942C48.96 23.8917 49.23 24.0529 49.4625 24.2779H49.4738C49.7588 24.0829 50.085 23.9292 50.4525 23.8167C50.8275 23.6967 51.2175 23.6367 51.6225 23.6367Z" fill="#414042"/>
    <path d="M32.5287 13.6286C32.4105 13.5248 32.2854 13.4358 32.1534 13.3616C32.4314 13.2504 32.6816 13.1021 32.897 12.9241C33.1125 12.7462 33.2932 12.5459 33.4461 12.3235C33.5921 12.101 33.7033 11.8489 33.7797 11.5894C33.8562 11.3224 33.8909 11.0407 33.8909 10.7441C33.8909 10.351 33.8284 9.9877 33.7033 9.65402C33.5782 9.32033 33.3766 9.03114 33.0986 8.78644C32.8206 8.54174 32.4592 8.34894 32.0213 8.21547C31.5834 8.082 31.0483 8.00784 30.4227 8.00784H27.6078V17.2249H29.6095V13.8139H30.1169C30.2698 13.8139 30.388 13.8362 30.4783 13.8881C30.5617 13.94 30.6382 14.0216 30.7007 14.1402L32.1395 16.8171C32.2854 17.0841 32.5287 17.2249 32.8623 17.2249H34.6763L32.8345 14.0142C32.7511 13.8584 32.6468 13.7324 32.5287 13.6286ZM31.8545 11.4633C31.7989 11.6413 31.7085 11.7896 31.5904 11.9231C31.4653 12.0565 31.3124 12.1529 31.1178 12.2271C30.9231 12.3012 30.6938 12.3383 30.4227 12.3383H29.6165V9.60211H30.4227C30.944 9.60211 31.3263 9.71334 31.5695 9.94321C31.8197 10.1731 31.9379 10.4845 31.9379 10.8924C31.9379 11.0926 31.9101 11.2854 31.8545 11.4633Z" fill="#414042"/>
    <path d="M39.1106 15.3683C38.9438 15.524 38.77 15.6501 38.5963 15.7391C38.4225 15.8281 38.2349 15.8726 38.0333 15.8726C37.7622 15.8726 37.5607 15.7836 37.4217 15.613C37.2827 15.4351 37.2132 15.1904 37.2132 14.8715V10.7709H35.3713V14.8715C35.3713 15.2274 35.42 15.5537 35.5103 15.8577C35.6007 16.1543 35.7328 16.4139 35.9135 16.6363C36.0942 16.8588 36.3096 17.0293 36.5668 17.148C36.824 17.274 37.1228 17.3334 37.4564 17.3334C37.651 17.3334 37.8387 17.3111 38.0055 17.274C38.1723 17.237 38.3252 17.1776 38.4712 17.1109C38.6171 17.0442 38.7492 16.9626 38.8743 16.8588C38.9994 16.7624 39.1245 16.6512 39.2427 16.5325V16.6437C39.2427 16.9107 39.4164 17.1406 39.6458 17.2073C39.6527 17.2073 39.6527 17.2073 39.6597 17.2147C39.6736 17.2221 39.6944 17.2221 39.7083 17.2221C39.7153 17.2221 39.7222 17.2221 39.7292 17.2221H39.7361C39.757 17.2221 39.7848 17.2295 39.8056 17.2295H40.9455V16.6437V15.3016V10.7709H39.1106V15.3683Z" fill="#414042"/>
    <path d="M47.6094 11.5223C47.4148 11.2405 47.1785 11.0329 46.9005 10.8846C46.6294 10.7363 46.3306 10.6695 46.0109 10.6695C45.6216 10.6695 45.2811 10.7437 44.9892 10.8846C44.6972 11.0255 44.4401 11.2183 44.2107 11.4555V8.00006H42.3689V14.7182V17.2246H43.2099C43.2168 17.2246 43.2307 17.2246 43.2377 17.2246H43.5296C43.8285 17.2246 44.0717 16.965 44.0717 16.6462V16.572L44.0995 16.5572C44.1968 16.6684 44.2941 16.7722 44.3914 16.8686C44.4957 16.965 44.5999 17.0466 44.725 17.1133C44.8432 17.1801 44.9753 17.232 45.1212 17.2691C45.2672 17.3061 45.427 17.3284 45.6077 17.3284C45.997 17.3284 46.3584 17.2468 46.6781 17.0763C46.9978 16.9057 47.2758 16.6684 47.5052 16.3644C47.7345 16.0604 47.9152 15.7045 48.0473 15.2966C48.1724 14.8888 48.2419 14.4365 48.2419 13.9545C48.2419 13.4354 48.1863 12.9757 48.0751 12.5678C47.9639 12.1452 47.804 11.8041 47.6094 11.5223ZM46.2541 14.8517C46.1916 15.1038 46.1151 15.304 46.0109 15.4598C45.9066 15.6155 45.7815 15.7267 45.6425 15.8009C45.5035 15.875 45.3436 15.9047 45.1768 15.9047C44.9961 15.9047 44.8293 15.875 44.6694 15.8083C44.5096 15.7415 44.3567 15.6303 44.2177 15.4672V12.731C44.2941 12.6346 44.3775 12.5456 44.454 12.464C44.5304 12.3899 44.6208 12.3231 44.7111 12.2712C44.8015 12.2193 44.9058 12.1822 45.017 12.1526C45.1282 12.1229 45.2463 12.1155 45.3784 12.1155C45.5243 12.1155 45.6564 12.1452 45.7745 12.2119C45.8927 12.2712 45.997 12.375 46.0804 12.5233C46.1638 12.6642 46.2333 12.857 46.2819 13.0869C46.3306 13.3168 46.3514 13.606 46.3514 13.9471C46.3445 14.2956 46.3167 14.5996 46.2541 14.8517Z" fill="#414042"/>
    <path d="M51.1555 10.7657H49.3137V17.2244H51.1555V10.7657Z" fill="#414042"/>
    <path d="M51.1555 8.00006H49.3137V9.83903H51.1555V8.00006Z" fill="#414042"/>
    <path d="M56.2491 15.3683C56.0823 15.524 55.9085 15.6501 55.7348 15.7391C55.561 15.8281 55.3733 15.8726 55.1718 15.8726C54.9007 15.8726 54.6992 15.7836 54.5602 15.613C54.4212 15.4351 54.3517 15.1904 54.3517 14.8715V10.7709H52.5098V14.8715C52.5098 15.2274 52.5585 15.5537 52.6488 15.8577C52.7392 16.1543 52.8712 16.4139 53.0519 16.6363C53.2327 16.8588 53.4481 17.0293 53.7053 17.148C53.9624 17.274 54.2613 17.3334 54.5949 17.3334C54.7895 17.3334 54.9772 17.3111 55.144 17.274C55.3108 17.237 55.4637 17.1776 55.6097 17.1109C55.7556 17.0442 55.8877 16.9626 56.0128 16.8588C56.1379 16.7624 56.263 16.6512 56.3811 16.5325V16.6437C56.3811 16.9107 56.5549 17.1406 56.7843 17.2073C56.7912 17.2073 56.7912 17.2073 56.7982 17.2147C56.8121 17.2221 56.8329 17.2221 56.8468 17.2221C56.8538 17.2221 56.8607 17.2221 56.8677 17.2221H56.8746C56.8955 17.2221 56.9233 17.2295 56.9441 17.2295H58.084V16.6437V15.3016V10.7709H56.2421V15.3683H56.2491Z" fill="#414042"/>
    <path d="M63.6045 14.4507C63.521 14.2653 63.4168 14.1022 63.2778 13.9761C63.1388 13.85 62.9928 13.7388 62.8191 13.6424C62.6523 13.5534 62.4715 13.4719 62.2978 13.4125C62.1171 13.3458 61.9433 13.2865 61.7765 13.2346C61.6097 13.1827 61.4568 13.1233 61.3178 13.064C61.1857 13.0047 61.0745 12.938 60.9911 12.8564C60.9077 12.7748 60.866 12.6784 60.866 12.5598C60.866 12.3967 60.9286 12.2632 61.0537 12.1742C61.1788 12.0778 61.3595 12.0333 61.5889 12.0333C61.7487 12.0333 61.8947 12.0556 62.0198 12.0926C62.1449 12.1297 62.263 12.1742 62.3603 12.2187C62.4646 12.2632 62.5549 12.3077 62.6453 12.3448C62.7357 12.3818 62.8191 12.4041 62.9094 12.4041C62.9928 12.4041 63.0623 12.3892 63.111 12.3522C63.1666 12.3225 63.2152 12.2632 63.2639 12.1816L63.6809 11.4994C63.5627 11.3808 63.4307 11.2695 63.2847 11.1657C63.1318 11.0619 62.965 10.9729 62.7843 10.8988C62.6036 10.8246 62.409 10.7653 62.2005 10.7208C61.992 10.6763 61.7765 10.6615 61.5541 10.6615C61.144 10.6615 60.7896 10.7134 60.4838 10.8246C60.1779 10.9359 59.9277 11.0842 59.7262 11.2695C59.5246 11.4549 59.3717 11.67 59.2744 11.9221C59.1701 12.1668 59.1215 12.4263 59.1215 12.7007C59.1215 12.9973 59.1632 13.2494 59.2466 13.457C59.33 13.6647 59.4412 13.8426 59.5733 13.9835C59.7053 14.1244 59.8582 14.243 60.032 14.3394C60.2057 14.4358 60.3795 14.51 60.5602 14.5767C60.7409 14.6435 60.9147 14.7028 61.0884 14.7547C61.2622 14.8066 61.4151 14.8659 61.5472 14.9252C61.6792 14.9846 61.7904 15.0587 61.8738 15.1403C61.9572 15.2218 61.9989 15.3257 61.9989 15.4591C61.9989 15.5333 61.985 15.6 61.9572 15.6668C61.9294 15.7335 61.8877 15.7928 61.8252 15.8447C61.7626 15.8966 61.6862 15.9411 61.5889 15.9708C61.4916 16.0004 61.3664 16.0153 61.2274 16.0153C61.0259 16.0153 60.8591 15.993 60.727 15.9411C60.595 15.8892 60.4768 15.8373 60.3795 15.778C60.2822 15.7187 60.1918 15.6668 60.1015 15.6149C60.0181 15.5629 59.9208 15.5407 59.8165 15.5407C59.6984 15.5407 59.608 15.5629 59.5385 15.6149C59.469 15.6593 59.4065 15.7261 59.3578 15.8076L58.9338 16.5195C59.052 16.6307 59.1979 16.7345 59.3578 16.8309C59.5246 16.9273 59.7053 17.0089 59.8999 17.0831C60.0945 17.1572 60.2961 17.2091 60.5046 17.2536C60.7131 17.2981 60.9216 17.3129 61.1301 17.3129C61.5472 17.3129 61.9225 17.261 62.2422 17.1498C62.5619 17.0386 62.833 16.8903 63.0554 16.6975C63.2778 16.5047 63.4376 16.2674 63.5488 16.0004C63.66 15.7335 63.7157 15.4369 63.7157 15.118C63.7296 14.8659 63.6879 14.636 63.6045 14.4507Z" fill="#414042"/>
    <path d="M6.50743 23.2552H0V30.0165H6.50743V23.2552Z" fill="#A31E22"/>
    <path fill-rule="evenodd" clip-rule="evenodd" d="M4.00244 0L8.90297 1.34162C9.31218 1.4481 9.62159 1.79947 9.71141 2.23603L10.6795 6.83587L5.9886 5.71786C5.5794 5.62203 5.25003 5.2813 5.15022 4.84474L4.00244 0Z" fill="#288349"/>
    <path d="M13.9437 23.2552H7.43628V30.0165H13.9437V23.2552Z" fill="#A31E22"/>
    <path d="M21.3775 23.2552H14.8701V30.0165H21.3775V23.2552Z" fill="#A31E22"/>
    <path d="M6.50743 15.5261H0V22.2875H6.50743V15.5261Z" fill="#A31E22"/>
    <path d="M13.9437 15.526H7.43628V22.2873H13.9437V15.526Z" fill="#A31E22"/>
    <path d="M21.3775 15.526H14.8701V22.2873H21.3775V15.526Z" fill="#A31E22"/>
    <path d="M6.50743 7.7916H0V14.5529H6.50743V7.7916Z" fill="#A31E22"/>
    <path d="M13.9437 7.7916H7.43628V14.5529H13.9437V7.7916Z" fill="#A31E22"/>
    <path d="M21.3775 7.7916H14.8701V14.5529H21.3775V7.7916Z" fill="#A31E22"/>
</svg>